<svg xmlns="http://www.w3.org/2000/svg" width="2436" height="1411" viewBox="0 0 2436 1411">
  <defs>
    <style>
      .cls-1 {
        fill-rule: evenodd;
      }
    </style>
  </defs>
  <path id="Don_t_let_crypto_scam_catch_you." data-name="Don’t let crypto scam catch you." class="cls-1" d="M526.572,311.874c87.282,0,148.089-62.876,148.089-152.226,0-91-62.462-153.88-152.226-153.88H406.611V311.874H526.572ZM515.817,67.816c55.43,0,88.109,33.92,88.109,91.832,0,56.671-31.024,90.177-83.973,90.177H473.624V67.816h42.193Zm186.548,140.23c0,65.358,47.984,108.792,114.169,108.792,65.772,0,113.756-43.434,113.756-108.792S882.306,98.84,816.534,98.84C750.349,98.84,702.365,142.688,702.365,208.046Zm64.117-.414c0-31.024,20.269-51.707,50.052-51.707,29.37,0,49.639,20.683,49.639,51.707,0,31.438-20.269,52.121-49.639,52.121C786.751,259.753,766.482,239.07,766.482,207.632ZM1030.8,311.874V198.532c0-25.647,16.13-42.193,41.37-42.193,21.92,0,36.4,16.96,36.4,43.02V311.874h63.7V184.054c0-54.189-28.54-85.627-77.77-85.627-26.88,0-50.46,10.341-63.29,28.128l-4.13-21.51H967.1V311.874h63.7Zm253.57-266.4c0-27.3-14.89-45.5-37.64-45.5-20.69,0-34.75,14.478-34.75,35.161,0,20.269,13.23,32.679,30.61,32.679a26.946,26.946,0,0,0,11.99-2.482c0,16.96-13.65,28.129-33.92,31.852v22.751C1258.72,115.8,1284.37,86.017,1284.37,45.479Zm134.02,266.4V157.993h39.3V105.045h-39.3V40.929h-63.71v64.117h-39.29v52.948h39.29V311.874h63.71Zm241.15,0V-0.024h-63.7v311.9h63.7Zm143.95,5.377c56.67,0,97.62-29.369,105.07-75.285h-58.33c-4.55,14.891-21.51,23.578-45.5,23.578-28.13,0-43.43-12.823-47.16-40.125l150.16-.827V208.459c0-67.426-40.54-110.032-105.48-110.032-62.46,0-105.9,45.088-105.9,109.619C1696.35,271.749,1741.03,317.251,1803.49,317.251Zm-0.83-167.117c25.65,0,41.78,14.064,41.78,35.988H1758.4C1763.37,161.3,1777.43,150.134,1802.66,150.134Zm224.2,161.74V157.993h39.3V105.045h-39.3V40.929h-63.7v64.117h-39.3v52.948h39.3V311.874h63.7ZM0.823,704.012c0,66.185,42.193,109.619,107.551,109.619,57.912,0,100.105-35.574,104.242-87.695H148.5c-4.137,20.269-17.787,30.611-40.125,30.611-27.3,0-43.434-19.442-43.434-52.535,0-31.851,17.373-52.12,44.261-52.12,21.924,0,34.748,9.927,39.3,30.61h64.117c-4.137-54.189-44.675-87.695-105.9-87.695C44.671,594.807.823,640.309,0.823,704.012ZM389.651,601.425a105.7,105.7,0,0,0-24.406-2.895c-27.715,0-45.916,13.651-54.6,33.92l-3.309-30.611h-59.98V808.254h63.7V718.49c0-40.952,21.924-57.084,58.325-57.084h20.27V601.425ZM411.57,907.531a148.61,148.61,0,0,0,42.193,5.792c36.4,0,59.566-17.788,76.94-59.981L635.772,601.425H569.587L519.534,734.209,474.445,601.425H406.192l83.145,213.861-3.723,9.928c-8.273,22.337-17.373,28.956-38.884,28.956H411.57v53.361Zm250.253,0h63.7V787.571c12,15.719,38.47,26.474,67.012,26.474,61.635,0,97.21-47.157,97.21-112.515,0-66.6-40.125-106.723-97.623-106.723-29.37,0-55.43,12.823-67.013,31.852L721.8,601.425h-59.98V907.531ZM725.94,704.84c0-31.025,20.682-51.707,50.466-51.707,30.2,0,49.225,21.1,49.225,51.707s-19.028,51.707-49.225,51.707C746.622,756.547,725.94,735.864,725.94,704.84Zm282.11,103.414V654.374h39.3V601.425h-39.3V537.309h-63.7v64.116h-39.3v52.949h39.3v153.88h63.7Zm54.61-103.828c0,65.358,47.98,108.792,114.17,108.792,65.77,0,113.75-43.434,113.75-108.792s-47.98-109.205-113.75-109.205C1110.64,595.221,1062.66,639.068,1062.66,704.426Zm64.11-.414c0-31.024,20.27-51.707,50.06-51.707,29.37,0,49.63,20.683,49.63,51.707,0,31.438-20.26,52.121-49.63,52.121C1147.04,756.133,1126.77,735.45,1126.77,704.012ZM1422.11,742.9c0,41.779,34.34,70.735,88.94,70.735,53.78,0,91.42-26.887,91.42-71.149,0-33.092-18.62-48.811-52.54-56.257l-38.47-8.273c-14.47-3.309-22.33-8.687-22.33-18.2,0-11.169,9.1-18.614,23.58-18.614,15.3,0,23.99,9.514,23.99,23.578h60.39c0-41.779-33.5-69.908-81.49-69.908-49.64,0-86.45,24.819-86.45,67.84,0,36.4,18.61,52.948,56.67,61.221l38.05,8.273c15.31,3.309,18.62,9.928,18.62,16.133,0,10.755-9.1,17.787-28.96,17.787-19.44,0-30.19-8.687-31.02-23.165h-60.4Zm202.28-38.884c0,66.185,42.19,109.619,107.55,109.619,57.91,0,100.1-35.574,104.24-87.695h-64.12c-4.13,20.269-17.78,30.611-40.12,30.611-27.3,0-43.44-19.442-43.44-52.535,0-31.851,17.38-52.12,44.27-52.12,21.92,0,34.74,9.927,39.29,30.61h64.12c-4.14-54.189-44.68-87.695-105.9-87.695C1668.24,594.807,1624.39,640.309,1624.39,704.012Zm308.99,109.619c31.02,0,58.32-13.65,64.94-32.678l4.14,27.3h56.26V687.466c0-59.153-33.92-92.659-93.9-92.659-59.16,0-97.63,30.611-97.63,77.354h52.95c0-18.615,14.48-28.956,41.37-28.956,22.75,0,35.16,10.755,35.16,31.024v3.309l-57.91,4.551c-49.64,3.722-76.53,27.3-76.53,65.357C1862.23,787.985,1889.53,813.631,1933.38,813.631Zm22.34-47.156c-19.45,0-28.55-7.033-28.55-21.924,0-13.237,9.93-19.442,37.65-21.924l32.26-2.9V730.9C1997.08,754.478,1980.12,766.475,1955.72,766.475Zm212.2,41.779V697.394c0-34.747,18.61-44.675,36.81-44.675,20.27,0,33.51,12.41,33.51,38.056V808.254h63.7V697.394c0-35.161,18.2-45.089,36.4-45.089,20.27,0,33.92,12.41,33.92,38.47V808.254h63.71V672.988c0-47.157-26.48-78.181-79.84-78.181-29.78,0-54.19,14.478-64.94,36.4-12-21.924-31.86-36.4-62.88-36.4-29.78,0-50.05,13.651-60.39,28.129l-4.14-21.511h-59.57V808.254h63.71ZM205.58,1200.39c0,66.19,42.193,109.62,107.551,109.62,57.912,0,100.105-35.57,104.242-87.69H353.256c-4.137,20.27-17.788,30.61-40.125,30.61-27.3,0-43.434-19.44-43.434-52.54,0-31.85,17.374-52.12,44.261-52.12,21.924,0,34.747,9.93,39.3,30.61h64.117c-4.137-54.19-44.675-87.69-105.9-87.69C249.428,1091.19,205.58,1136.69,205.58,1200.39Zm308.992,109.62c31.024,0,58.325-13.65,64.944-32.68l4.136,27.3H639.91V1183.85c0-59.16-33.92-92.66-93.9-92.66-59.153,0-97.623,30.61-97.623,77.35h52.948c0-18.61,14.478-28.95,41.365-28.95,22.751,0,35.161,10.75,35.161,31.02v3.31l-57.912,4.55c-49.639,3.72-76.526,27.3-76.526,65.36C443.423,1284.36,470.724,1310.01,514.572,1310.01Zm22.337-47.16c-19.442,0-28.542-7.03-28.542-21.92,0-13.24,9.928-19.44,37.643-21.92l32.265-2.9v11.17C578.275,1250.86,561.315,1262.85,536.909,1262.85ZM766.9,1304.63V1150.75h39.3v-52.94H766.9v-64.12H703.2v64.12H663.9v52.94h39.3v153.88h63.7Zm54.6-104.24c0,66.19,42.193,109.62,107.55,109.62,57.912,0,100.105-35.57,104.245-87.69H969.18c-4.137,20.27-17.787,30.61-40.125,30.61-27.3,0-43.434-19.44-43.434-52.54,0-31.85,17.374-52.12,44.262-52.12,21.923,0,34.747,9.93,39.3,30.61h64.12c-4.14-54.19-44.678-87.69-105.9-87.69C865.352,1091.19,821.505,1136.69,821.505,1200.39Zm310.235,104.24V1191.29c0-25.64,16.13-42.19,41.36-42.19,21.93,0,36.4,16.96,36.4,43.02v112.51h63.71V1176.81c0-54.18-28.54-85.62-77.77-85.62-26.89,0-50.47,10.34-63.29,28.13V992.737h-64.12V1304.63h63.71Zm280.03,99.28a148.734,148.734,0,0,0,42.19,5.79c36.41,0,59.57-17.78,76.94-59.98l105.07-251.91h-66.18l-50.05,132.78-45.09-132.78h-68.26l83.15,213.86-3.72,9.92c-8.28,22.34-17.38,28.96-38.89,28.96h-35.16v53.36Zm228.75-203.1c0,65.35,47.98,108.79,114.17,108.79,65.77,0,113.75-43.44,113.75-108.79s-47.98-109.21-113.75-109.21C1688.5,1091.6,1640.52,1135.45,1640.52,1200.81Zm64.11-.42c0-31.02,20.27-51.7,50.06-51.7,29.37,0,49.63,20.68,49.63,51.7,0,31.44-20.26,52.12-49.63,52.12C1724.9,1252.51,1704.63,1231.83,1704.63,1200.39Zm332.99-102.58v107.55c0,33.92-11.17,47.98-38.47,47.98-26.06,0-37.64-14.89-37.64-48.81V1097.81h-63.7v129.88c0,50.88,28.95,82.32,76.11,82.32,24.82,0,50.47-11.58,63.29-28.54l4.14,23.16h59.98V1097.81h-63.71Zm151.39,212.2c20.27,0,38.06-16.96,38.06-37.23,0-20.68-17.79-37.64-38.06-37.64a37.868,37.868,0,0,0-38.05,37.64C2150.96,1293.05,2167.92,1310.01,2189.01,1310.01Z"/>
</svg>
