<svg xmlns="http://www.w3.org/2000/svg" width="11284" height="6018" viewBox="0 0 11284 6018">
  <defs>
    <style>
      .cls-1 {
        fill-rule: evenodd;
      }
    </style>
  </defs>
  <path id="Don_t_let_crypto_scams_catch_you." data-name="Don’t let crypto scams catch you." class="cls-1" d="M2662.64,1332.01c372.52,0,632.05-268.36,632.05-649.7,0-388.407-266.59-656.761-649.7-656.761H2150.65V1332.01h511.99Zm-45.9-1041.642c236.57,0,376.05,144.77,376.05,391.938,0,241.872-132.41,384.874-358.4,384.874H2436.66V290.368h180.08Zm796.19,598.5c0,278.951,204.79,464.321,487.27,464.321,280.72,0,485.51-185.37,485.51-464.321S4180.92,422.78,3900.2,422.78C3617.72,422.78,3412.93,609.921,3412.93,888.869Zm273.65-1.766c0-132.412,86.51-220.686,213.62-220.686,125.35,0,211.86,88.274,211.86,220.686,0,134.177-86.51,222.447-211.86,222.447C3773.09,1109.55,3686.58,1021.28,3686.58,887.1ZM4814.69,1332.01V848.262c0-109.46,68.86-180.079,176.55-180.079,93.57,0,155.37,72.385,155.37,183.61V1332.01h271.88V786.47c0-231.279-121.82-365.456-331.91-365.456-114.76,0-215.39,44.137-270.12,120.053l-17.66-91.8H4542.81V1332.01h271.88ZM5896.92,195.032c0-116.523-63.56-194.2-160.66-194.2-88.28,0-148.3,61.792-148.3,150.066,0,86.509,56.49,139.474,130.64,139.474,19.42,0,37.08-3.531,51.2-10.593,0,72.385-58.26,120.053-144.77,135.943v97.1C5787.46,495.165,5896.92,368.049,5896.92,195.032Zm572,1136.978V675.244h167.72V449.262H6468.92V175.611H6197.03V449.262H6029.31V675.244h167.72V1332.01h271.89Zm1029.25,0V0.828H7226.29V1332.01h271.88Zm614.36,22.95c241.88,0,416.66-125.35,448.44-321.32H8312.03c-19.42,63.56-91.8,100.63-194.2,100.63-120.05,0-185.38-54.73-201.27-171.251l640.88-3.531V890.634c0-287.775-173.02-469.62-450.2-469.62-266.59,0-451.97,192.438-451.97,467.855C7655.27,1160.75,7845.94,1354.96,8112.53,1354.96ZM8109,641.7c109.46,0,178.32,60.027,178.32,153.6H7920.09C7941.28,689.368,8001.31,641.7,8109,641.7Zm956.89,690.31V675.244h167.73V449.262H9065.89V175.611H8794.01V449.262H8626.29V675.244h167.72V1332.01h271.88ZM0.331,3005.66c0,282.47,180.08,467.85,459.027,467.85,247.169,0,427.249-151.83,444.9-374.28H630.611c-17.655,86.51-75.916,130.64-171.253,130.64-116.522,0-185.376-82.97-185.376-224.21,0-135.95,74.151-222.46,188.907-222.46,93.571,0,148.3,42.38,167.722,130.65H904.262c-17.655-231.28-190.673-374.28-451.966-374.28C187.473,2539.57.331,2733.77,0.331,3005.66ZM1659.85,2567.81a451.521,451.521,0,0,0-104.17-12.35c-118.28,0-195.97,58.26-233.04,144.77l-14.12-130.65h-256v880.98H1324.4V3067.45c0-174.79,93.58-243.64,248.94-243.64h86.51v-256Zm93.55,1306.47c52.96,15.89,114.75,24.71,180.08,24.71,155.36,0,254.23-75.91,328.38-255.99l448.43-1075.19H2427.81l-213.62,566.73-192.44-566.73h-291.3l354.86,912.76-15.89,42.37c-35.31,95.34-74.15,123.59-165.96,123.59H1753.4v227.75Zm1068.08,0h271.88v-512c51.2,67.09,164.2,113,286.01,113,263.06,0,414.89-201.27,414.89-480.22,0-284.24-171.25-455.49-416.65-455.49-125.35,0-236.58,54.73-286.01,135.94l-14.12-107.7h-256V3874.28Zm273.65-865.09c0-132.41,88.27-220.69,215.39-220.69,128.88,0,210.09,90.04,210.09,220.69s-81.21,220.68-210.09,220.68C3183.4,3229.87,3095.13,3141.6,3095.13,3009.19Zm1204.06,441.37V2793.8h167.72V2567.81H4299.19V2294.16H4027.31v273.65H3859.59V2793.8h167.72v656.76h271.88Zm233.05-443.14c0,278.95,204.8,464.33,487.28,464.33,280.71,0,485.5-185.38,485.5-464.33s-204.79-466.09-485.5-466.09C4737.04,2541.33,4532.24,2728.47,4532.24,3007.42Zm273.65-1.76c0-132.42,86.51-220.69,213.63-220.69,125.35,0,211.85,88.27,211.85,220.69,0,134.17-86.5,222.45-211.85,222.45C4892.4,3228.11,4805.89,3139.83,4805.89,3005.66Zm1260.52,165.95c0,178.32,146.53,301.9,379.58,301.9,229.51,0,390.17-114.76,390.17-303.66,0-141.24-79.45-208.33-224.22-240.11l-164.19-35.31c-61.79-14.12-95.33-37.08-95.33-77.68,0-47.67,38.84-79.45,100.63-79.45,65.32,0,102.4,40.61,102.4,100.63h257.76c0-178.31-143-298.36-347.8-298.36-211.86,0-368.99,105.93-368.99,289.54,0,155.36,79.45,225.98,241.87,261.29l162.43,35.31c65.32,14.12,79.45,42.37,79.45,68.85,0,45.91-38.85,75.92-123.59,75.92-82.98,0-128.88-37.08-132.41-98.87H6066.41Zm863.3-165.95c0,282.47,180.08,467.85,459.03,467.85,247.17,0,427.25-151.83,444.9-374.28H7559.99c-17.66,86.51-75.92,130.64-171.25,130.64-116.53,0-185.38-82.97-185.38-224.21,0-135.95,74.15-222.46,188.91-222.46,93.57,0,148.3,42.38,167.72,130.65h273.65c-17.65-231.28-190.67-374.28-451.97-374.28C7116.85,2539.57,6929.71,2733.77,6929.71,3005.66Zm1318.78,467.85c132.41,0,248.93-58.26,277.18-139.47l17.65,116.52h240.11V2935.04c0-252.47-144.77-395.47-400.77-395.47-252.46,0-416.65,130.64-416.65,330.14h225.98c0-79.44,61.79-123.58,176.55-123.58,97.1,0,150.07,45.9,150.07,132.41v14.12l-247.17,19.43c-211.86,15.88-326.62,116.52-326.62,278.94C7944.82,3364.05,8061.34,3473.51,8248.49,3473.51Zm95.33-201.27c-82.98,0-121.82-30.01-121.82-93.57,0-56.49,42.38-82.97,160.66-93.57l137.71-12.36v47.67C8520.37,3221.05,8447.99,3272.24,8343.82,3272.24Zm905.67,178.32V2977.41c0-148.3,79.45-190.67,157.13-190.67,86.51,0,143.01,52.96,143.01,162.42v501.4h271.88V2977.41c0-150.07,77.68-192.44,155.37-192.44,86.52,0,144.72,52.96,144.72,164.19v501.4h271.9V2873.24c0-201.26-113-333.67-340.7-333.67-127.12,0-231.29,61.79-277.19,155.36-51.2-93.57-135.94-155.36-268.35-155.36-127.12,0-213.63,58.26-257.77,120.05l-17.65-91.81H8977.61v882.75h271.88Zm1264.01-278.95c0,178.32,146.6,301.9,379.6,301.9,229.5,0,390.2-114.76,390.2-303.66,0-141.24-79.5-208.33-224.2-240.11l-164.2-35.31c-61.8-14.12-95.3-37.08-95.3-77.68,0-47.67,38.8-79.45,100.6-79.45,65.3,0,102.4,40.61,102.4,100.63h257.7c0-178.31-143-298.36-347.8-298.36-211.8,0-368.9,105.93-368.9,289.54,0,155.36,79.4,225.98,241.8,261.29l162.5,35.31c65.3,14.12,79.4,42.37,79.4,68.85,0,45.91-38.8,75.92-123.6,75.92-83,0-128.9-37.08-132.4-98.87h-257.8ZM1292.65,5124.21c0,282.48,180.08,467.85,459.03,467.85,247.16,0,427.24-151.83,444.9-374.28H1922.93c-17.66,86.51-75.92,130.65-171.25,130.65-116.53,0-185.38-82.98-185.38-224.22,0-135.94,74.15-222.45,188.91-222.45,93.57,0,148.3,42.37,167.72,130.64h273.65c-17.66-231.28-190.67-374.28-451.97-374.28C1479.79,4658.12,1292.65,4852.32,1292.65,5124.21Zm1318.77,467.85c132.42,0,248.94-58.26,277.19-139.47l17.65,116.52h240.11V5053.59c0-252.47-144.77-395.47-400.77-395.47-252.46,0-416.65,130.65-416.65,330.15h225.98c0-79.45,61.79-123.59,176.55-123.59,97.1,0,150.06,45.9,150.06,132.41v14.13l-247.16,19.42c-211.86,15.89-326.62,116.52-326.62,278.95C2307.76,5482.6,2424.28,5592.06,2611.42,5592.06Zm95.34-201.26c-82.98,0-121.82-30.02-121.82-93.57,0-56.5,42.37-82.98,160.66-93.57l137.71-12.36v47.67C2883.31,5339.6,2810.92,5390.8,2706.76,5390.8Zm981.61,178.31V4912.35h167.72V4686.37H3688.37V4412.72H3416.48v273.65H3248.76v225.98h167.72v656.76h271.89Zm233.05-444.9c0,282.48,180.08,467.85,459.02,467.85,247.17,0,427.25-151.83,444.91-374.28H4551.69c-17.65,86.51-75.91,130.65-171.25,130.65-116.52,0-185.37-82.98-185.37-224.22,0-135.94,74.15-222.45,188.9-222.45,93.57,0,148.3,42.37,167.72,130.64h273.66c-17.66-231.28-190.68-374.28-451.97-374.28C4108.56,4658.12,3921.42,4852.32,3921.42,5124.21Zm1324.07,444.9V5085.37c0-109.46,68.85-180.08,176.55-180.08,93.57,0,155.36,72.38,155.36,183.61v480.21h271.89V5023.58c0-231.28-121.82-365.46-331.92-365.46-114.75,0-215.39,44.14-270.12,120.05V4237.93H4973.6V5569.11h271.89Zm1195.18,423.72c52.97,15.89,114.76,24.72,180.08,24.72,155.37,0,254.23-75.92,328.39-256l448.43-1075.18H7115.09l-213.62,566.72-192.44-566.72H6417.72l354.87,912.76-15.89,42.37c-35.31,95.33-74.15,123.58-165.96,123.58H6440.67v227.75Zm976.29-866.86c0,278.95,204.8,464.33,487.28,464.33,280.71,0,485.51-185.38,485.51-464.33s-204.8-466.08-485.51-466.08C7621.76,4659.89,7416.96,4847.03,7416.96,5125.97Zm273.65-1.76c0-132.41,86.51-220.69,213.63-220.69,125.35,0,211.86,88.28,211.86,220.69,0,134.18-86.51,222.45-211.86,222.45C7777.12,5346.66,7690.61,5258.39,7690.61,5124.21Zm1421.2-437.84v459.02c0,144.77-47.67,204.8-164.19,204.8-111.22,0-160.66-63.56-160.66-208.33V4686.37H8515.08v554.36c0,217.16,123.58,351.33,324.85,351.33,105.93,0,215.39-49.43,270.12-121.82l17.65,98.87h256V4686.37H9111.81Zm646.13,905.69c86.51,0,162.43-72.38,162.43-158.89,0-88.28-75.92-160.66-162.43-160.66-90.04,0-162.42,72.38-162.42,160.66C9595.52,5519.68,9667.9,5592.06,9757.94,5592.06Z"/>
</svg>
